STARTFONT 2.1
COMMENT
COMMENT Converted from OpenType font "Cantarell-Regular.otf" by "otf2bdf 3.0".
COMMENT
FONT -FreeType-Cantarell-Medium-R-Normal--25-180-100-100-P-108-ISO10646-1
SIZE 18 100 100
FONTBOUNDINGBOX 24 27 0 -6
STARTPROPERTIES 19
FOUNDRY "FreeType"
FAMILY_NAME "Cantarell"
WEIGHT_NAME "Medium"
SLANT "R"
SETWIDTH_NAME "Normal"
ADD_STYLE_NAME ""
PIXEL_SIZE 25
POINT_SIZE 180
RESOLUTION_X 100
RESOLUTION_Y 100
SPACING "P"
AVERAGE_WIDTH 108
CHARSET_REGISTRY "ISO10646"
CHARSET_ENCODING "1"
FONT_ASCENT 24
FONT_DESCENT 5
COPYRIGHT "Copyright (c) 2009--2017 The Cantarell Authors"
_OTF_FONTFILE "Cantarell-Regular.otf"
_OTF_PSNAME "Cantarell-Regular"
ENDPROPERTIES
CHARS 95
STARTCHAR 0020
ENCODING 32
SWIDTH 240 0
DWIDTH 6 0
BBX 0 0 0 0
BITMAP
ENDCHAR
STARTCHAR 0021
ENCODING 33
SWIDTH 240 0
DWIDTH 6 0
BBX 4 18 1 0
BITMAP
60
60
60
60
60
60
60
60
60
60
60
60
60
00
00
60
F0
60
ENDCHAR
STARTCHAR 0022
ENCODING 34
SWIDTH 440 0
DWIDTH 11 0
BBX 6 7 3 11
BITMAP
CC
CC
CC
CC
CC
CC
CC
ENDCHAR
STARTCHAR 0023
ENCODING 35
SWIDTH 640 0
DWIDTH 16 0
BBX 15 18 1 0
BITMAP
1820
1820
1820
1820
FFFE
FFFE
1820
1820
1820
1820
1820
FFFE
FFFE
1820
1820
1820
1820
1820
ENDCHAR
STARTCHAR 0024
ENCODING 36
SWIDTH 640 0
DWIDTH 16 0
BBX 12 24 2 -3
BITMAP
0600
0600
0600
1FC0
3FE0
6020
C000
C000
C000
E000
7800
3F00
0FC0
01E0
0070
0030
0030
0070
C0E0
FFC0
3F80
0600
0600
0600
ENDCHAR
STARTCHAR 0025
ENCODING 37
SWIDTH 1000 0
DWIDTH 25 0
BBX 21 18 2 0
BITMAP
3C0300
7E0600
630600
C30C00
C30C00
C31800
C31800
C331E0
E333F0
7E6630
3C6618
00CC18
018C18
018618
030618
030630
0603F0
0601E0
ENDCHAR
STARTCHAR 0026
ENCODING 38
SWIDTH 720 0
DWIDTH 18 0
BBX 14 18 2 0
BITMAP
0F00
1FC0
30C0
30C0
30C0
30C0
3380
3F00
3C00
7C00
EE0C
C70C
C398
C1F0
C070
E0F8
7FDC
1F08
ENDCHAR
STARTCHAR 0027
ENCODING 39
SWIDTH 280 0
DWIDTH 7 0
BBX 3 7 2 11
BITMAP
E0
C0
C0
C0
40
40
40
ENDCHAR
STARTCHAR 0028
ENCODING 40
SWIDTH 320 0
DWIDTH 8 0
BBX 4 23 2 -4
BITMAP
10
30
30
60
60
C0
C0
C0
C0
C0
C0
C0
C0
C0
C0
C0
C0
C0
60
60
20
30
10
ENDCHAR
STARTCHAR 0029
ENCODING 41
SWIDTH 320 0
DWIDTH 8 0
BBX 5 23 1 -4
BITMAP
40
C0
60
60
30
30
30
18
18
18
18
18
18
18
18
18
30
30
30
70
60
60
C0
ENDCHAR
STARTCHAR 002A
ENCODING 42
SWIDTH 480 0
DWIDTH 12 0
BBX 10 11 1 7
BITMAP
0C00
0C00
4C80
E9C0
7B00
1E00
1E00
7B80
C980
0C00
0C00
ENDCHAR
STARTCHAR 002B
ENCODING 43
SWIDTH 640 0
DWIDTH 16 0
BBX 12 14 2 1
BITMAP
0600
0600
0600
0600
0600
0600
FFF0
FFF0
0600
0600
0600
0600
0600
0600
ENDCHAR
STARTCHAR 002C
ENCODING 44
SWIDTH 280 0
DWIDTH 7 0
BBX 3 7 2 -4
BITMAP
E0
C0
C0
C0
C0
C0
80
ENDCHAR
STARTCHAR 002D
ENCODING 45
SWIDTH 440 0
DWIDTH 11 0
BBX 7 2 2 5
BITMAP
FE
FE
ENDCHAR
STARTCHAR 002E
ENCODING 46
SWIDTH 280 0
DWIDTH 7 0
BBX 3 3 2 0
BITMAP
E0
E0
E0
ENDCHAR
STARTCHAR 002F
ENCODING 47
SWIDTH 320 0
DWIDTH 8 0
BBX 7 21 1 -2
BITMAP
06
0C
0C
0C
0C
18
18
18
18
30
30
30
30
20
60
60
60
40
C0
C0
C0
ENDCHAR
STARTCHAR 0030
ENCODING 48
SWIDTH 640 0
DWIDTH 16 0
BBX 12 18 2 0
BITMAP
0F00
3FC0
70E0
6060
C070
C030
C030
C030
C030
C030
C030
C030
C030
C060
6060
70E0
3FC0
1F00
ENDCHAR
STARTCHAR 0031
ENCODING 49
SWIDTH 440 0
DWIDTH 11 0
BBX 9 18 1 0
BITMAP
0C00
1C00
7C00
EC00
0C00
0C00
0C00
0C00
0C00
0C00
0C00
0C00
0C00
0C00
0C00
0C00
7F80
7F80
ENDCHAR
STARTCHAR 0032
ENCODING 50
SWIDTH 520 0
DWIDTH 13 0
BBX 11 18 1 0
BITMAP
3F00
7F80
C1C0
00C0
00E0
00C0
00C0
00C0
01C0
0180
0300
0700
0E00
1C00
3800
7000
FFE0
FFE0
ENDCHAR
STARTCHAR 0033
ENCODING 51
SWIDTH 560 0
DWIDTH 14 0
BBX 12 18 1 0
BITMAP
1F00
FFC0
40E0
0060
0060
0060
00E0
01C0
1F00
1FC0
00E0
0070
0030
0030
0030
C060
FFC0
3F80
ENDCHAR
STARTCHAR 0034
ENCODING 52
SWIDTH 600 0
DWIDTH 15 0
BBX 13 18 1 0
BITMAP
00C0
01C0
01C0
03C0
06C0
06C0
0CC0
18C0
18C0
30C0
60C0
60C0
FFF8
FFF8
00C0
00C0
00C0
00C0
ENDCHAR
STARTCHAR 0035
ENCODING 53
SWIDTH 560 0
DWIDTH 14 0
BBX 12 18 1 0
BITMAP
3FE0
3FE0
2000
6000
6000
6000
6000
7F00
7FC0
00E0
0060
0070
0030
0070
0060
40E0
FFC0
3F00
ENDCHAR
STARTCHAR 0036
ENCODING 54
SWIDTH 600 0
DWIDTH 15 0
BBX 11 18 2 0
BITMAP
0FC0
1FE0
3020
6000
E000
C000
C000
CF80
DFC0
E0E0
C060
C060
C060
E060
E060
70E0
3FC0
1F00
ENDCHAR
STARTCHAR 0037
ENCODING 55
SWIDTH 520 0
DWIDTH 13 0
BBX 11 18 1 0
BITMAP
FFE0
FFE0
0060
00C0
00C0
01C0
0180
0180
0300
0300
0600
0600
0E00
0C00
0C00
1800
1800
3800
ENDCHAR
STARTCHAR 0038
ENCODING 56
SWIDTH 600 0
DWIDTH 15 0
BBX 12 18 1 0
BITMAP
0F80
3FE0
3060
6070
6030
6030
7060
3CC0
1F80
1FC0
70E0
6070
E030
E030
6030
7070
3FE0
0F80
ENDCHAR
STARTCHAR 0039
ENCODING 57
SWIDTH 600 0
DWIDTH 15 0
BBX 12 18 1 0
BITMAP
0F00
3FC0
70E0
6060
6070
E030
E030
6030
7070
3FB0
1F30
0030
0030
0060
0060
41C0
7F80
3F00
ENDCHAR
STARTCHAR 003A
ENCODING 58
SWIDTH 280 0
DWIDTH 7 0
BBX 3 12 2 0
BITMAP
E0
E0
E0
00
00
00
00
00
00
E0
E0
E0
ENDCHAR
STARTCHAR 003B
ENCODING 59
SWIDTH 280 0
DWIDTH 7 0
BBX 3 16 2 -4
BITMAP
C0
E0
E0
00
00
00
00
00
00
C0
C0
C0
C0
C0
C0
80
ENDCHAR
STARTCHAR 003C
ENCODING 60
SWIDTH 600 0
DWIDTH 15 0
BBX 11 13 2 2
BITMAP
0020
00E0
01C0
0700
1C00
7000
E000
7000
1C00
0F00
03C0
00E0
0020
ENDCHAR
STARTCHAR 003D
ENCODING 61
SWIDTH 720 0
DWIDTH 18 0
BBX 12 8 3 4
BITMAP
FFF0
FFF0
0000
0000
0000
0000
FFF0
FFF0
ENDCHAR
STARTCHAR 003E
ENCODING 62
SWIDTH 600 0
DWIDTH 15 0
BBX 11 13 2 2
BITMAP
8000
E000
7800
1E00
0780
01E0
0060
01E0
0780
1E00
7800
E000
8000
ENDCHAR
STARTCHAR 003F
ENCODING 63
SWIDTH 440 0
DWIDTH 11 0
BBX 10 18 0 0
BITMAP
3E00
FF80
81C0
00C0
00C0
01C0
0180
0300
0600
0E00
0C00
0C00
0C00
0000
0000
0C00
1E00
0C00
ENDCHAR
STARTCHAR 0040
ENCODING 64
SWIDTH 1000 0
DWIDTH 25 0
BBX 21 22 2 -4
BITMAP
00FE00
07FF80
0E01C0
1C00E0
300070
700030
607A18
61FE18
C38618
C30618
C30618
C30618
C30618
C30630
C38E30
61FFE0
606000
300000
380000
1C0000
07FE00
01FC00
ENDCHAR
STARTCHAR 0041
ENCODING 65
SWIDTH 680 0
DWIDTH 17 0
BBX 15 18 1 0
BITMAP
0380
03C0
06C0
06C0
06E0
0C60
0C60
0C70
1830
1830
3838
3FF8
3FF8
701C
600C
600C
C00E
C006
ENDCHAR
STARTCHAR 0042
ENCODING 66
SWIDTH 640 0
DWIDTH 16 0
BBX 12 18 3 0
BITMAP
FF00
FFC0
C1C0
C0E0
C060
C060
C0C0
C1C0
FF80
FFE0
C060
C070
C030
C030
C030
C060
FFE0
FF80
ENDCHAR
STARTCHAR 0043
ENCODING 67
SWIDTH 640 0
DWIDTH 16 0
BBX 13 18 2 0
BITMAP
07F0
1FF8
3808
7000
6000
C000
C000
C000
C000
C000
C000
C000
C000
E000
7000
3808
1FF8
07E0
ENDCHAR
STARTCHAR 0044
ENCODING 68
SWIDTH 720 0
DWIDTH 18 0
BBX 14 18 3 0
BITMAP
FF00
FFE0
C0F0
C030
C038
C018
C01C
C01C
C00C
C00C
C01C
C018
C018
C038
C030
C0E0
FFC0
FF00
ENDCHAR
STARTCHAR 0045
ENCODING 69
SWIDTH 600 0
DWIDTH 15 0
BBX 10 18 3 0
BITMAP
FFC0
FFC0
C000
C000
C000
C000
C000
C000
FFC0
FFC0
C000
C000
C000
C000
C000
C000
FFC0
FFC0
ENDCHAR
STARTCHAR 0046
ENCODING 70
SWIDTH 600 0
DWIDTH 15 0
BBX 10 18 3 0
BITMAP
FFC0
FFC0
C000
C000
C000
C000
C000
C000
FFC0
FFC0
C000
C000
C000
C000
C000
C000
C000
C000
ENDCHAR
STARTCHAR 0047
ENCODING 71
SWIDTH 720 0
DWIDTH 18 0
BBX 15 18 2 0
BITMAP
07F0
1FFC
3800
7000
6000
C000
C000
C000
C0FE
C0FE
C006
C006
E006
6006
7006
380E
1FFC
07F0
ENDCHAR
STARTCHAR 0048
ENCODING 72
SWIDTH 760 0
DWIDTH 19 0
BBX 13 18 3 0
BITMAP
C018
C018
C018
C018
C018
C018
C018
C018
FFF8
FFF8
C018
C018
C018
C018
C018
C018
C018
C018
ENDCHAR
STARTCHAR 0049
ENCODING 73
SWIDTH 280 0
DWIDTH 7 0
BBX 2 18 3 0
BITMAP
C0
C0
C0
C0
C0
C0
C0
C0
C0
C0
C0
C0
C0
C0
C0
C0
C0
C0
ENDCHAR
STARTCHAR 004A
ENCODING 74
SWIDTH 440 0
DWIDTH 11 0
BBX 8 18 1 0
BITMAP
03
03
03
03
03
03
03
03
03
03
03
03
03
03
06
06
FE
78
ENDCHAR
STARTCHAR 004B
ENCODING 75
SWIDTH 640 0
DWIDTH 16 0
BBX 12 18 3 0
BITMAP
C060
C0C0
C1C0
C380
C700
CE00
DC00
D800
F000
F800
DC00
CE00
C700
C300
C380
C1C0
C0E0
C070
ENDCHAR
STARTCHAR 004C
ENCODING 76
SWIDTH 520 0
DWIDTH 13 0
BBX 9 18 3 0
BITMAP
C000
C000
C000
C000
C000
C000
C000
C000
C000
C000
C000
C000
C000
C000
C000
C000
FF80
FF80
ENDCHAR
STARTCHAR 004D
ENCODING 77
SWIDTH 880 0
DWIDTH 22 0
BBX 16 18 3 0
BITMAP
C003
C003
E007
E007
F00F
F00F
D81B
D81B
CC33
CC33
C663
C663
C3C3
C3C3
C183
C003
C003
C003
ENDCHAR
STARTCHAR 004E
ENCODING 78
SWIDTH 760 0
DWIDTH 19 0
BBX 14 18 3 0
BITMAP
C00C
E00C
F00C
F00C
D80C
DC0C
CC0C
C60C
C60C
C30C
C18C
C18C
C0CC
C0EC
C06C
C03C
C03C
C01C
ENDCHAR
STARTCHAR 004F
ENCODING 79
SWIDTH 800 0
DWIDTH 20 0
BBX 16 18 2 0
BITMAP
07E0
1FF8
383C
700C
6006
C006
C007
C003
C003
C003
C003
C007
C006
E006
700C
381C
1FF0
07C0
ENDCHAR
STARTCHAR 0050
ENCODING 80
SWIDTH 600 0
DWIDTH 15 0
BBX 11 18 3 0
BITMAP
FF00
FF80
C1C0
C0E0
C060
C060
C060
C060
C0E0
C1C0
FF80
FE00
C000
C000
C000
C000
C000
C000
ENDCHAR
STARTCHAR 0051
ENCODING 81
SWIDTH 800 0
DWIDTH 20 0
BBX 16 18 2 -1
BITMAP
07E0
1FF8
383C
700C
6006
C006
C007
C003
C003
C003
C083
C0C7
C066
E036
701C
381C
1FF6
07E3
ENDCHAR
STARTCHAR 0052
ENCODING 82
SWIDTH 640 0
DWIDTH 16 0
BBX 12 18 3 0
BITMAP
FF00
FFC0
C0E0
C060
C060
C060
C060
C0E0
C1C0
FF80
FF00
C300
C180
C1C0
C0C0
C0E0
C060
C070
ENDCHAR
STARTCHAR 0053
ENCODING 83
SWIDTH 600 0
DWIDTH 15 0
BBX 12 18 1 0
BITMAP
0FC0
3FF0
7000
6000
6000
6000
6000
7800
1F80
07E0
00F0
0070
0030
0030
0030
4070
FFE0
1F80
ENDCHAR
STARTCHAR 0054
ENCODING 84
SWIDTH 600 0
DWIDTH 15 0
BBX 13 18 1 0
BITMAP
FFF8
FFF8
0600
0600
0600
0600
0600
0600
0600
0600
0600
0600
0600
0600
0600
0600
0600
0600
ENDCHAR
STARTCHAR 0055
ENCODING 85
SWIDTH 720 0
DWIDTH 18 0
BBX 13 18 2 0
BITMAP
C018
C018
C018
C018
C018
C018
C018
C018
C018
C018
C018
C018
C018
6018
6018
7030
3FE0
0FC0
ENDCHAR
STARTCHAR 0056
ENCODING 86
SWIDTH 640 0
DWIDTH 16 0
BBX 14 18 1 0
BITMAP
C00C
E00C
6018
6018
7018
3030
3030
3830
1860
1860
1860
0CC0
0CC0
0CC0
0780
0780
0780
0300
ENDCHAR
STARTCHAR 0057
ENCODING 87
SWIDTH 1000 0
DWIDTH 25 0
BBX 23 18 1 0
BITMAP
C03806
E03806
E03C06
602C06
606C0C
706C0C
30660C
30C618
30C618
18C318
188310
198330
0D81B0
0D81B0
0D01E0
0F01E0
0700E0
0600C0
ENDCHAR
STARTCHAR 0058
ENCODING 88
SWIDTH 640 0
DWIDTH 16 0
BBX 14 18 1 0
BITMAP
E018
7038
3030
3860
18E0
0CC0
0F80
0780
0300
0780
0780
0CC0
18E0
1860
3070
7038
6018
C01C
ENDCHAR
STARTCHAR 0059
ENCODING 89
SWIDTH 600 0
DWIDTH 15 0
BBX 13 18 1 0
BITMAP
C018
E018
6030
3070
3060
18C0
1CC0
0D80
0780
0700
0300
0300
0300
0300
0300
0300
0300
0300
ENDCHAR
STARTCHAR 005A
ENCODING 90
SWIDTH 640 0
DWIDTH 16 0
BBX 14 18 1 0
BITMAP
7FFC
7FFC
0018
0030
0060
00E0
00C0
0180
0380
0700
0600
0C00
1C00
1800
3000
6000
FFFC
FFFC
ENDCHAR
STARTCHAR 005B
ENCODING 91
SWIDTH 360 0
DWIDTH 9 0
BBX 6 24 2 -5
BITMAP
FC
FC
C0
C0
C0
C0
C0
C0
C0
C0
C0
C0
C0
C0
C0
C0
C0
C0
C0
C0
C0
C0
FC
FC
ENDCHAR
STARTCHAR 005C
ENCODING 92
SWIDTH 360 0
DWIDTH 9 0
BBX 7 21 1 -2
BITMAP
C0
C0
60
60
60
60
30
30
30
30
18
18
18
18
0C
0C
0C
0C
06
06
06
ENDCHAR
STARTCHAR 005D
ENCODING 93
SWIDTH 360 0
DWIDTH 9 0
BBX 6 24 1 -5
BITMAP
FC
FC
0C
0C
0C
0C
0C
0C
0C
0C
0C
0C
0C
0C
0C
0C
0C
0C
0C
0C
0C
0C
FC
FC
ENDCHAR
STARTCHAR 005E
ENCODING 94
SWIDTH 640 0
DWIDTH 16 0
BBX 12 12 2 6
BITMAP
0600
0F00
0F00
1B80
1980
31C0
30C0
60E0
6060
C070
C030
0020
ENDCHAR
STARTCHAR 005F
ENCODING 95
SWIDTH 600 0
DWIDTH 15 0
BBX 11 2 2 -2
BITMAP
FFE0
FFE0
ENDCHAR
STARTCHAR 0060
ENCODING 96
SWIDTH 280 0
DWIDTH 7 0
BBX 4 4 1 15
BITMAP
40
E0
60
30
ENDCHAR
STARTCHAR 0061
ENCODING 97
SWIDTH 520 0
DWIDTH 13 0
BBX 10 12 1 0
BITMAP
3F00
7F80
01C0
00C0
00C0
1FC0
7CC0
C0C0
C0C0
E1C0
7FC0
3EC0
ENDCHAR
STARTCHAR 0062
ENCODING 98
SWIDTH 560 0
DWIDTH 14 0
BBX 11 19 2 0
BITMAP
C000
C000
C000
C000
C000
C000
C000
DF00
FF80
E1C0
C0E0
C060
C060
C060
C060
C0C0
E1C0
FF80
DF00
ENDCHAR
STARTCHAR 0063
ENCODING 99
SWIDTH 480 0
DWIDTH 12 0
BBX 10 12 1 0
BITMAP
0F80
3FC0
7000
6000
C000
C000
C000
C000
6000
7000
3FC0
1F80
ENDCHAR
STARTCHAR 0064
ENCODING 100
SWIDTH 560 0
DWIDTH 14 0
BBX 11 19 1 0
BITMAP
0060
0060
0060
0060
0060
0060
0060
1F60
3FE0
70E0
6060
C060
C060
C060
E060
6060
7060
3FE0
1F20
ENDCHAR
STARTCHAR 0065
ENCODING 101
SWIDTH 520 0
DWIDTH 13 0
BBX 11 12 1 0
BITMAP
1F00
3FC0
60C0
6060
C060
FFE0
FFE0
E000
6000
7000
3FC0
0FC0
ENDCHAR
STARTCHAR 0066
ENCODING 102
SWIDTH 360 0
DWIDTH 9 0
BBX 8 19 1 0
BITMAP
0F
3F
30
30
60
60
60
FE
FE
60
60
60
60
60
60
60
60
60
60
ENDCHAR
STARTCHAR 0067
ENCODING 103
SWIDTH 560 0
DWIDTH 14 0
BBX 11 18 1 -6
BITMAP
1F20
3FE0
70E0
6060
C060
C060
C060
E060
6060
7060
3FE0
1F60
0060
0060
0060
00C0
3F80
1F00
ENDCHAR
STARTCHAR 0068
ENCODING 104
SWIDTH 560 0
DWIDTH 14 0
BBX 10 19 2 0
BITMAP
C000
C000
C000
C000
C000
C000
C000
DF00
FF80
E1C0
C0C0
C0C0
C0C0
C0C0
C0C0
C0C0
C0C0
C0C0
C0C0
ENDCHAR
STARTCHAR 0069
ENCODING 105
SWIDTH 240 0
DWIDTH 6 0
BBX 3 18 2 0
BITMAP
C0
E0
C0
00
00
00
C0
C0
C0
C0
C0
C0
C0
C0
C0
C0
C0
C0
ENDCHAR
STARTCHAR 006A
ENCODING 106
SWIDTH 240 0
DWIDTH 6 0
BBX 5 24 0 -6
BITMAP
30
38
30
00
00
00
30
30
30
30
30
30
30
30
30
30
30
30
30
30
30
60
E0
C0
ENDCHAR
STARTCHAR 006B
ENCODING 107
SWIDTH 480 0
DWIDTH 12 0
BBX 10 19 2 0
BITMAP
C000
C000
C000
C000
C000
C000
C000
C180
C300
C600
CC00
D800
F800
DC00
CC00
C600
C700
C380
C1C0
ENDCHAR
STARTCHAR 006C
ENCODING 108
SWIDTH 280 0
DWIDTH 7 0
BBX 5 19 2 0
BITMAP
C0
C0
C0
C0
C0
C0
C0
C0
C0
C0
C0
C0
C0
C0
C0
C0
C0
F0
78
ENDCHAR
STARTCHAR 006D
ENCODING 109
SWIDTH 880 0
DWIDTH 22 0
BBX 18 12 2 0
BITMAP
DF1F00
FFBF80
E1E1C0
C0C0C0
C0C0C0
C0C0C0
C0C0C0
C0C0C0
C0C0C0
C0C0C0
C0C0C0
C0C0C0
ENDCHAR
STARTCHAR 006E
ENCODING 110
SWIDTH 560 0
DWIDTH 14 0
BBX 10 12 2 0
BITMAP
DF00
FF80
E1C0
C0C0
C0C0
C0C0
C0C0
C0C0
C0C0
C0C0
C0C0
C0C0
ENDCHAR
STARTCHAR 006F
ENCODING 111
SWIDTH 560 0
DWIDTH 14 0
BBX 12 12 1 0
BITMAP
0F80
3FC0
70E0
6060
C030
C030
C030
C030
6060
70E0
3FC0
1F00
ENDCHAR
STARTCHAR 0070
ENCODING 112
SWIDTH 560 0
DWIDTH 14 0
BBX 11 18 2 -6
BITMAP
DF00
FF80
E0C0
C0E0
C060
C060
C060
C060
C0C0
E0C0
FF80
DF00
C000
C000
C000
C000
C000
C000
ENDCHAR
STARTCHAR 0071
ENCODING 113
SWIDTH 560 0
DWIDTH 14 0
BBX 11 18 1 -6
BITMAP
1F20
3FE0
70E0
6060
C060
C060
C060
E060
6060
7060
3FE0
1F60
0060
0060
0060
0060
0060
0060
ENDCHAR
STARTCHAR 0072
ENCODING 114
SWIDTH 360 0
DWIDTH 9 0
BBX 7 12 2 0
BITMAP
CE
FE
E0
C0
C0
C0
C0
C0
C0
C0
C0
C0
ENDCHAR
STARTCHAR 0073
ENCODING 115
SWIDTH 480 0
DWIDTH 12 0
BBX 10 12 1 0
BITMAP
1F00
7F80
E000
C000
E000
7C00
0F80
0180
01C0
0180
FF80
7E00
ENDCHAR
STARTCHAR 0074
ENCODING 116
SWIDTH 360 0
DWIDTH 9 0
BBX 7 16 1 0
BITMAP
60
60
60
60
FE
FE
60
60
60
60
60
60
60
70
3E
1E
ENDCHAR
STARTCHAR 0075
ENCODING 117
SWIDTH 560 0
DWIDTH 14 0
BBX 10 12 2 0
BITMAP
C0C0
C0C0
C0C0
C0C0
C0C0
C0C0
C0C0
C0C0
C0C0
E1C0
7FC0
3EC0
ENDCHAR
STARTCHAR 0076
ENCODING 118
SWIDTH 480 0
DWIDTH 12 0
BBX 11 12 0 0
BITMAP
E060
6060
6060
30C0
30C0
30C0
1980
1980
0D00
0F00
0F00
0600
ENDCHAR
STARTCHAR 0077
ENCODING 119
SWIDTH 800 0
DWIDTH 20 0
BBX 18 12 1 0
BITMAP
C0C0C0
C1E0C0
C1E180
616180
636180
633100
323300
363300
361A00
1C1E00
1C1E00
0C0C00
ENDCHAR
STARTCHAR 0078
ENCODING 120
SWIDTH 480 0
DWIDTH 12 0
BBX 10 12 1 0
BITMAP
C0C0
E180
6380
3300
1E00
1C00
0C00
1E00
3700
6300
E180
C0C0
ENDCHAR
STARTCHAR 0079
ENCODING 121
SWIDTH 480 0
DWIDTH 12 0
BBX 12 18 0 -6
BITMAP
E030
6060
6060
3040
30C0
30C0
1980
1980
0900
0F00
0F00
0600
0600
0600
0C00
0C00
1C00
1800
ENDCHAR
STARTCHAR 007A
ENCODING 122
SWIDTH 480 0
DWIDTH 12 0
BBX 10 12 1 0
BITMAP
FF80
FF80
0300
0700
0600
0C00
1800
3800
3000
6000
FFC0
FFC0
ENDCHAR
STARTCHAR 007B
ENCODING 123
SWIDTH 400 0
DWIDTH 10 0
BBX 8 23 1 -4
BITMAP
07
1F
18
18
18
18
18
18
10
30
60
E0
30
30
18
18
18
18
18
18
18
1F
07
ENDCHAR
STARTCHAR 007C
ENCODING 124
SWIDTH 320 0
DWIDTH 8 0
BBX 2 23 3 -4
BITMAP
C0
C0
C0
C0
C0
C0
C0
C0
C0
C0
C0
C0
C0
C0
C0
C0
C0
C0
C0
C0
C0
C0
C0
ENDCHAR
STARTCHAR 007D
ENCODING 125
SWIDTH 400 0
DWIDTH 10 0
BBX 8 23 1 -4
BITMAP
E0
F0
18
18
18
18
18
18
18
1C
0C
07
06
0C
18
18
18
18
18
18
18
F0
E0
ENDCHAR
STARTCHAR 007E
ENCODING 126
SWIDTH 680 0
DWIDTH 17 0
BBX 11 4 3 6
BITMAP
7820
FC60
8FE0
8380
ENDCHAR
ENDFONT
